<svg width="36" height="36" viewBox="0 0 36 36" fill="none" xmlns="http://www.w3.org/2000/svg">
<path d="M4.5 18H13.5C13.5 10.545 15.5145 4.5 18 4.5C14.4196 4.5 10.9858 5.92232 8.45406 8.45406C5.92232 10.9858 4.5 14.4196 4.5 18Z" fill="url(#paint0_linear_676_527)"/>
<path d="M31.5 18C31.5 14.4196 30.0777 10.9858 27.5459 8.45406C25.0142 5.92232 21.5804 4.5 18 4.5C20.4855 4.5 22.5 10.545 22.5 18H31.5Z" fill="url(#paint1_linear_676_527)"/>
<path d="M13.5 18H4.5C4.5 21.5804 5.92232 25.0142 8.45406 27.5459C10.9858 30.0777 14.4196 31.5 18 31.5C15.5145 31.5 13.5 25.455 13.5 18Z" fill="url(#paint2_linear_676_527)"/>
<path d="M27.5459 27.5459C30.0777 25.0142 31.5 21.5804 31.5 18H22.5C22.5 25.455 20.4855 31.5 18 31.5C21.5804 31.5 25.0142 30.0777 27.5459 27.5459Z" fill="url(#paint3_linear_676_527)"/>
<path d="M31.5 18C31.5 21.5804 30.0777 25.0142 27.5459 27.5459C25.0142 30.0777 21.5804 31.5 18 31.5M31.5 18C31.5 14.4196 30.0777 10.9858 27.5459 8.45406C25.0142 5.92232 21.5804 4.5 18 4.5M31.5 18H4.5M31.5 18H22.5M18 31.5C14.4196 31.5 10.9858 30.0777 8.45406 27.5459C5.92232 25.0142 4.5 21.5804 4.5 18M18 31.5C20.4855 31.5 22.5 25.455 22.5 18M18 31.5C15.5145 31.5 13.5 25.455 13.5 18M18 4.5C20.4855 4.5 22.5 10.545 22.5 18M18 4.5C15.5145 4.5 13.5 10.545 13.5 18M18 4.5C14.4196 4.5 10.9858 5.92232 8.45406 8.45406C5.92232 10.9858 4.5 14.4196 4.5 18M4.5 18H13.5" stroke="black" stroke-width="2" stroke-linecap="round" stroke-linejoin="round"/>
<defs>
<linearGradient id="paint0_linear_676_527" x1="26" y1="7.5" x2="7" y2="31" gradientUnits="userSpaceOnUse">
<stop stop-color="#18D0C2"/>
<stop offset="1" stop-color="#4169C5"/>
</linearGradient>
<linearGradient id="paint1_linear_676_527" x1="26" y1="7.5" x2="7" y2="31" gradientUnits="userSpaceOnUse">
<stop stop-color="#18D0C2"/>
<stop offset="1" stop-color="#4169C5"/>
</linearGradient>
<linearGradient id="paint2_linear_676_527" x1="26" y1="7.5" x2="7" y2="31" gradientUnits="userSpaceOnUse">
<stop stop-color="#18D0C2"/>
<stop offset="1" stop-color="#4169C5"/>
</linearGradient>
<linearGradient id="paint3_linear_676_527" x1="26" y1="7.5" x2="7" y2="31" gradientUnits="userSpaceOnUse">
<stop stop-color="#18D0C2"/>
<stop offset="1" stop-color="#4169C5"/>
</linearGradient>
</defs>
</svg>
