<svg width="24" height="24" viewBox="0 0 24 24" fill="none" xmlns="http://www.w3.org/2000/svg">
<path d="M21 7C21 9.21 16.97 11 12 11C7.03 11 3 9.21 3 7C3 4.79 7.03 3 12 3C16.97 3 21 4.79 21 7Z" fill="black"/>
<path d="M21 7C21 9.21 16.97 11 12 11C7.03 11 3 9.21 3 7V12C3 14.21 7.03 16 12 16C16.97 16 21 14.21 21 12V7Z" fill="url(#paint0_linear_760_167)"/>
<path d="M21 12C21 14.21 16.97 16 12 16C7.03 16 3 14.21 3 12V17C3 19.21 7.03 21 12 21C16.97 21 21 19.21 21 17V12Z" fill="url(#paint1_linear_760_167)"/>
<path d="M21 7C21 9.21 16.97 11 12 11C7.03 11 3 9.21 3 7M21 7C21 4.79 16.97 3 12 3C7.03 3 3 4.79 3 7M21 7V12M3 7V12M21 12C21 14.21 16.97 16 12 16C7.03 16 3 14.21 3 12M21 12V17C21 19.21 16.97 21 12 21C7.03 21 3 19.21 3 17V12" stroke="black" stroke-width="2" stroke-linecap="round" stroke-linejoin="round"/>
<defs>
<linearGradient id="paint0_linear_760_167" x1="3.52683" y1="3" x2="15.6903" y2="7.0953" gradientUnits="userSpaceOnUse">
<stop stop-color="#33FF00"/>
<stop offset="1" stop-color="#16D5E1"/>
</linearGradient>
<linearGradient id="paint1_linear_760_167" x1="3.52683" y1="3" x2="15.6903" y2="7.0953" gradientUnits="userSpaceOnUse">
<stop stop-color="#33FF00"/>
<stop offset="1" stop-color="#16D5E1"/>
</linearGradient>
</defs>
</svg>
