<svg width="24" height="24" viewBox="0 0 24 24" fill="none" xmlns="http://www.w3.org/2000/svg">
<path d="M22 18L17 22L9 19V22L4.81 16.25L17.72 17.3V6.34L22 5.65V18ZM4.81 16.25V8.96L17.72 6.34L10.6 2V4.84L3.97 6.76L2 9.38V15.07L4.81 16.25Z" fill="url(#paint0_linear_760_171)"/>
<path d="M4.81 16.25L17.72 17.3V6.34L4.81 8.96V16.25Z" fill="url(#paint1_linear_760_171)"/>
<path d="M22 18L17 22L9 19V22L4.81 16.25L17.72 17.3V6.34L22 5.65V18ZM4.81 16.25V8.96L17.72 6.34L10.6 2V4.84L3.97 6.76L2 9.38V15.07L4.81 16.25Z" fill="black"/>
<defs>
<linearGradient id="paint0_linear_760_171" x1="2.58537" y1="2" x2="16.1004" y2="6.55033" gradientUnits="userSpaceOnUse">
<stop stop-color="#33FF00"/>
<stop offset="1" stop-color="#16D5E1"/>
</linearGradient>
<linearGradient id="paint1_linear_760_171" x1="2.58537" y1="2" x2="16.1004" y2="6.55033" gradientUnits="userSpaceOnUse">
<stop stop-color="#33FF00"/>
<stop offset="1" stop-color="#16D5E1"/>
</linearGradient>
</defs>
</svg>
