<svg width="32" height="32" viewBox="0 0 32 32" fill="none" xmlns="http://www.w3.org/2000/svg">
<path d="M11.9043 24.5295C11.9043 24.5295 10.7126 25.223 12.7536 25.457C15.2266 25.7395 16.4903 25.699 19.2148 25.184C19.2148 25.184 19.9326 25.6328 20.9331 26.0218C14.8233 28.6393 7.10607 25.87 11.9043 24.5295ZM11.1573 21.1133C11.1573 21.1133 9.82032 22.103 11.8631 22.3145C14.5048 22.5873 16.5906 22.6095 20.2016 21.9145C20.2016 21.9145 20.6998 22.4208 21.4846 22.6973C14.0991 24.8573 5.87307 22.8673 11.1573 21.1133Z" fill="#0074BD"/>
<path d="M17.4504 15.3163C18.9566 17.05 17.0554 18.6088 17.0554 18.6088C17.0554 18.6088 20.8776 16.636 19.1226 14.1645C17.4829 11.8608 16.2259 10.7165 23.0314 6.76953C23.0314 6.76978 12.3486 9.43703 17.4504 15.3163Z" fill="#EA2D2E"/>
<path d="M25.5309 27.0577C25.5309 27.0577 26.4131 27.7852 24.5589 28.3475C21.0334 29.4155 9.88235 29.7375 6.78535 28.3902C5.6726 27.9057 7.7601 27.234 8.41685 27.0922C9.1016 26.944 9.4926 26.971 9.4926 26.971C8.25435 26.0992 1.48935 28.6835 6.05685 29.4247C18.5121 31.4437 28.7611 28.5155 25.5309 27.0577ZM12.4781 17.574C12.4781 17.574 6.8066 18.9212 10.4699 19.411C12.0169 19.618 15.0994 19.5705 17.9726 19.3295C20.3201 19.1322 22.6759 18.711 22.6759 18.711C22.6759 18.711 21.8489 19.0657 21.2499 19.4742C15.4894 20.9895 4.36385 20.2837 7.5671 18.7347C10.2751 17.425 12.4781 17.574 12.4781 17.574ZM22.6524 23.2607C28.5076 20.219 25.8001 17.2957 23.9104 17.6895C23.4484 17.7857 23.2411 17.8695 23.2411 17.8695C23.2411 17.8695 23.4131 17.5997 23.7411 17.4837C27.4794 16.17 30.3539 21.3595 22.5354 23.415C22.5354 23.4145 22.6251 23.3332 22.6524 23.2607Z" fill="#0074BD"/>
<path d="M19.1228 0.398438C19.1228 0.398438 22.3648 3.64244 16.047 8.62919C10.9805 12.6307 14.8918 14.9117 16.0453 17.5189C13.0875 14.8507 10.918 12.5014 12.3733 10.3152C14.5103 7.10669 20.4305 5.55044 19.1228 0.398438Z" fill="#EA2D2E"/>
<path d="M13.0536 31.5035C18.6726 31.8628 27.3036 31.3035 27.5078 28.6445C27.5078 28.6445 27.1151 29.6525 22.8636 30.4523C18.0671 31.3553 12.1501 31.25 8.64185 30.6708C8.64185 30.671 9.3606 31.266 13.0536 31.5035Z" fill="#0074BD"/>
</svg>
