<svg width="24" height="24" viewBox="0 0 24 24" fill="none" xmlns="http://www.w3.org/2000/svg">
<path d="M21.6066 6.3295C21.5384 6.16083 21.4302 6.01123 21.2915 5.89353C21.1527 5.77583 20.9875 5.69354 20.8099 5.65372C20.6324 5.6139 20.4479 5.61773 20.2721 5.66489C20.0964 5.71205 19.9347 5.80114 19.801 5.9245L16.1653 9.28262L14.9766 9.02762L14.7188 7.83606L18.0741 4.20044C18.1975 4.06669 18.2865 3.90502 18.3337 3.72929C18.3809 3.55356 18.3847 3.36901 18.3449 3.19147C18.3051 3.01393 18.2228 2.8487 18.1051 2.70994C17.9874 2.57119 17.8378 2.46305 17.6691 2.39481C16.3946 1.88176 14.999 1.74777 13.6501 2.00898C12.3013 2.27018 11.0566 2.91545 10.0657 3.8672C9.07488 4.81894 8.38003 6.03665 8.06474 7.37389C7.74945 8.71113 7.82714 10.111 8.28848 11.4051L2.89879 16.3307C2.88596 16.3419 2.87376 16.3538 2.86223 16.3664C2.2378 17.001 1.88947 17.8568 1.89309 18.7471C1.89672 19.6374 2.25201 20.4903 2.88158 21.1198C3.51115 21.7494 4.36399 22.1047 5.25432 22.1083C6.14466 22.1119 7.00036 21.7636 7.63504 21.1392L7.67066 21.1026L12.5963 15.7129C13.8908 16.1755 15.2914 16.254 16.6295 15.939C17.9676 15.624 19.1861 14.9288 20.1382 13.9372C21.0904 12.9457 21.7355 11.7 21.996 10.3502C22.2566 9.00048 22.1213 7.60418 21.6066 6.3295ZM15 13.8764C14.2398 13.8786 13.4897 13.7013 12.811 13.3589C12.5918 13.2484 12.3426 13.2126 12.1012 13.257C11.8599 13.3013 11.6396 13.4234 11.4741 13.6045L6.0291 19.5632C5.81776 19.7746 5.53111 19.8933 5.23223 19.8933C4.93334 19.8933 4.6467 19.7746 4.43535 19.5632C4.22401 19.3519 4.10527 19.0653 4.10527 18.7664C4.10527 18.4675 4.22401 18.1808 4.43535 17.9695L10.3932 12.5254C10.5743 12.3599 10.6964 12.1396 10.7407 11.8983C10.785 11.6569 10.7493 11.4077 10.6388 11.1886C10.2979 10.51 10.1219 9.76069 10.125 9.00137C10.1265 7.7089 10.6406 6.46979 11.5545 5.55587C12.4685 4.64196 13.7076 4.12786 15 4.12637H15.0835L12.6722 6.73919C12.5501 6.87162 12.4617 7.03142 12.4142 7.20517C12.3667 7.37891 12.3616 7.56152 12.3994 7.73762L12.93 10.2079C12.9756 10.4197 13.0813 10.6138 13.2344 10.767C13.3876 10.9202 13.5817 11.0259 13.7935 11.0714L16.2638 11.602C16.4399 11.6398 16.6225 11.6347 16.7962 11.5872C16.97 11.5398 17.1298 11.4513 17.2622 11.3292L19.875 8.91887V9.00231C19.8733 10.2946 19.3591 11.5335 18.4452 12.4472C17.5313 13.3609 16.2923 13.8749 15 13.8764Z" fill="url(#paint0_linear_760_165)"/>
<path d="M15 13.8764C14.2398 13.8786 13.4897 13.7013 12.811 13.3589C12.5918 13.2484 12.3426 13.2126 12.1012 13.257C11.8599 13.3013 11.6396 13.4234 11.4741 13.6045L6.0291 19.5632C5.81776 19.7746 5.53111 19.8933 5.23223 19.8933C4.93334 19.8933 4.6467 19.7746 4.43535 19.5632C4.22401 19.3519 4.10527 19.0653 4.10527 18.7664C4.10527 18.4675 4.22401 18.1808 4.43535 17.9695L10.3932 12.5254C10.5743 12.3599 10.6964 12.1396 10.7407 11.8983C10.785 11.6569 10.7493 11.4077 10.6388 11.1886C10.2979 10.51 10.1219 9.76069 10.125 9.00137C10.1265 7.7089 10.6406 6.46979 11.5545 5.55587C12.4685 4.64196 13.7076 4.12786 15 4.12637H15.0835L12.6722 6.73919C12.5501 6.87162 12.4617 7.03142 12.4142 7.20517C12.3667 7.37891 12.3616 7.56152 12.3994 7.73762L12.93 10.2079C12.9756 10.4197 13.0813 10.6138 13.2344 10.767C13.3876 10.9202 13.5817 11.0259 13.7935 11.0714L16.2638 11.602C16.4399 11.6398 16.6225 11.6347 16.7962 11.5872C16.97 11.5398 17.1298 11.4513 17.2622 11.3292L19.875 8.91887V9.00231C19.8733 10.2946 19.3591 11.5335 18.4452 12.4472C17.5313 13.3609 16.2923 13.8749 15 13.8764Z" fill="url(#paint1_linear_760_165)"/>
<path d="M21.6066 6.3295C21.5384 6.16083 21.4302 6.01123 21.2915 5.89353C21.1527 5.77583 20.9875 5.69354 20.8099 5.65372C20.6324 5.6139 20.4479 5.61773 20.2721 5.66489C20.0964 5.71205 19.9347 5.80114 19.801 5.9245L16.1653 9.28262L14.9766 9.02762L14.7188 7.83606L18.0741 4.20044C18.1975 4.06669 18.2865 3.90502 18.3337 3.72929C18.3809 3.55356 18.3847 3.36901 18.3449 3.19147C18.3051 3.01393 18.2228 2.8487 18.1051 2.70994C17.9874 2.57119 17.8378 2.46305 17.6691 2.39481C16.3946 1.88176 14.999 1.74777 13.6501 2.00898C12.3013 2.27018 11.0566 2.91545 10.0657 3.8672C9.07488 4.81894 8.38003 6.03665 8.06474 7.37389C7.74945 8.71113 7.82714 10.111 8.28848 11.4051L2.89879 16.3307C2.88596 16.3419 2.87376 16.3538 2.86223 16.3664C2.2378 17.001 1.88947 17.8568 1.89309 18.7471C1.89672 19.6374 2.25201 20.4903 2.88158 21.1198C3.51115 21.7494 4.36399 22.1047 5.25432 22.1083C6.14466 22.1119 7.00036 21.7636 7.63504 21.1392L7.67066 21.1026L12.5963 15.7129C13.8908 16.1755 15.2914 16.254 16.6295 15.939C17.9676 15.624 19.1861 14.9288 20.1382 13.9372C21.0904 12.9457 21.7355 11.7 21.996 10.3502C22.2566 9.00048 22.1213 7.60418 21.6066 6.3295ZM15 13.8764C14.2398 13.8786 13.4897 13.7013 12.811 13.3589C12.5918 13.2484 12.3426 13.2126 12.1012 13.257C11.8599 13.3013 11.6396 13.4234 11.4741 13.6045L6.0291 19.5632C5.81776 19.7746 5.53111 19.8933 5.23223 19.8933C4.93334 19.8933 4.6467 19.7746 4.43535 19.5632C4.22401 19.3519 4.10527 19.0653 4.10527 18.7664C4.10527 18.4675 4.22401 18.1808 4.43535 17.9695L10.3932 12.5254C10.5743 12.3599 10.6964 12.1396 10.7407 11.8983C10.785 11.6569 10.7493 11.4077 10.6388 11.1886C10.2979 10.51 10.1219 9.76069 10.125 9.00137C10.1265 7.7089 10.6406 6.46979 11.5545 5.55587C12.4685 4.64196 13.7076 4.12786 15 4.12637H15.0835L12.6722 6.73919C12.5501 6.87162 12.4617 7.03142 12.4142 7.20517C12.3667 7.37891 12.3616 7.56152 12.3994 7.73762L12.93 10.2079C12.9756 10.4197 13.0813 10.6138 13.2344 10.767C13.3876 10.9202 13.5817 11.0259 13.7935 11.0714L16.2638 11.602C16.4399 11.6398 16.6225 11.6347 16.7962 11.5872C16.97 11.5398 17.1298 11.4513 17.2622 11.3292L19.875 8.91887V9.00231C19.8733 10.2946 19.3591 11.5335 18.4452 12.4472C17.5313 13.3609 16.2923 13.8749 15 13.8764Z" stroke="#18D8D2"/>
<path d="M15 13.8764C14.2398 13.8786 13.4897 13.7013 12.811 13.3589C12.5918 13.2484 12.3426 13.2126 12.1012 13.257C11.8599 13.3013 11.6396 13.4234 11.4741 13.6045L6.0291 19.5632C5.81776 19.7746 5.53111 19.8933 5.23223 19.8933C4.93334 19.8933 4.6467 19.7746 4.43535 19.5632C4.22401 19.3519 4.10527 19.0653 4.10527 18.7664C4.10527 18.4675 4.22401 18.1808 4.43535 17.9695L10.3932 12.5254C10.5743 12.3599 10.6964 12.1396 10.7407 11.8983C10.785 11.6569 10.7493 11.4077 10.6388 11.1886C10.2979 10.51 10.1219 9.76069 10.125 9.00137C10.1265 7.7089 10.6406 6.46979 11.5545 5.55587C12.4685 4.64196 13.7076 4.12786 15 4.12637H15.0835L12.6722 6.73919C12.5501 6.87162 12.4617 7.03142 12.4142 7.20517C12.3667 7.37891 12.3616 7.56152 12.3994 7.73762L12.93 10.2079C12.9756 10.4197 13.0813 10.6138 13.2344 10.767C13.3876 10.9202 13.5817 11.0259 13.7935 11.0714L16.2638 11.602C16.4399 11.6398 16.6225 11.6347 16.7962 11.5872C16.97 11.5398 17.1298 11.4513 17.2622 11.3292L19.875 8.91887V9.00231C19.8733 10.2946 19.3591 11.5335 18.4452 12.4472C17.5313 13.3609 16.2923 13.8749 15 13.8764Z" stroke="#18D8D2"/>
<path d="M21.6066 6.3295C21.5384 6.16083 21.4302 6.01123 21.2915 5.89353C21.1527 5.77583 20.9875 5.69354 20.8099 5.65372C20.6324 5.6139 20.4479 5.61773 20.2721 5.66489C20.0964 5.71205 19.9347 5.80114 19.801 5.9245L16.1653 9.28262L14.9766 9.02762L14.7188 7.83606L18.0741 4.20044C18.1975 4.06669 18.2865 3.90502 18.3337 3.72929C18.3809 3.55356 18.3847 3.36901 18.3449 3.19147C18.3051 3.01393 18.2228 2.8487 18.1051 2.70994C17.9874 2.57119 17.8378 2.46305 17.6691 2.39481C16.3946 1.88176 14.999 1.74777 13.6501 2.00898C12.3013 2.27018 11.0566 2.91545 10.0657 3.8672C9.07488 4.81894 8.38003 6.03665 8.06474 7.37389C7.74945 8.71113 7.82714 10.111 8.28848 11.4051L2.89879 16.3307C2.88596 16.342 2.87376 16.3538 2.86223 16.3664C2.2378 17.001 1.88947 17.8568 1.89309 18.7471C1.89672 19.6374 2.25201 20.4903 2.88158 21.1198C3.51115 21.7494 4.36399 22.1047 5.25432 22.1083C6.14466 22.1119 7.00036 21.7636 7.63504 21.1392L7.67066 21.1026L12.5963 15.7129C13.8908 16.1755 15.2914 16.2541 16.6295 15.939C17.9676 15.624 19.1861 14.9288 20.1382 13.9372C21.0904 12.9457 21.7355 11.7 21.996 10.3502C22.2566 9.00048 22.1213 7.60418 21.6066 6.3295ZM15 13.8764C14.2398 13.8786 13.4897 13.7013 12.811 13.3589C12.5918 13.2484 12.3426 13.2126 12.1012 13.257C11.8599 13.3013 11.6396 13.4234 11.4741 13.6045L6.0291 19.5632C5.81776 19.7746 5.53111 19.8933 5.23223 19.8933C4.93334 19.8933 4.6467 19.7746 4.43535 19.5632C4.22401 19.3519 4.10527 19.0653 4.10527 18.7664C4.10527 18.4675 4.22401 18.1808 4.43535 17.9695L10.3932 12.5254C10.5743 12.3599 10.6964 12.1396 10.7407 11.8983C10.785 11.6569 10.7493 11.4077 10.6388 11.1886C10.2979 10.51 10.1219 9.76069 10.125 9.00137C10.1265 7.7089 10.6406 6.46979 11.5545 5.55587C12.4685 4.64196 13.7076 4.12786 15 4.12637H15.0835L12.6722 6.73919C12.5501 6.87162 12.4617 7.03142 12.4142 7.20517C12.3667 7.37891 12.3616 7.56152 12.3994 7.73762L12.93 10.2079C12.9756 10.4197 13.0813 10.6138 13.2344 10.767C13.3876 10.9202 13.5817 11.0259 13.7935 11.0714L16.2638 11.602C16.4399 11.6398 16.6225 11.6347 16.7962 11.5872C16.97 11.5398 17.1298 11.4513 17.2622 11.3292L19.875 8.91887V9.00231C19.8733 10.2946 19.3591 11.5335 18.4452 12.4472C17.5313 13.3609 16.2923 13.8749 15 13.8764Z" fill="black"/>
<defs>
<linearGradient id="paint0_linear_760_165" x1="2.48523" y1="1.87891" x2="16.1567" y2="6.48256" gradientUnits="userSpaceOnUse">
<stop stop-color="#33FF00"/>
<stop offset="1" stop-color="#16D5E1"/>
</linearGradient>
<linearGradient id="paint1_linear_760_165" x1="2.48523" y1="1.87891" x2="16.1567" y2="6.48256" gradientUnits="userSpaceOnUse">
<stop stop-color="#33FF00"/>
<stop offset="1" stop-color="#16D5E1"/>
</linearGradient>
</defs>
</svg>
