<svg width="32" height="32" viewBox="0 0 32 32" fill="none" xmlns="http://www.w3.org/2000/svg">
<g clip-path="url(#clip0_728_3)">
<path d="M28.5783 13.8125C28.5654 13.8125 28.5528 13.8163 28.542 13.8235L27.9555 14.166C27.9445 14.1728 27.9354 14.1824 27.9292 14.1938C27.923 14.2052 27.9198 14.218 27.92 14.231V14.916C27.92 14.945 27.9338 14.967 27.9555 14.9815L28.542 15.3235C28.5528 15.3307 28.5654 15.3345 28.5783 15.3345C28.5912 15.3345 28.6038 15.3307 28.6145 15.3235L29.2 14.9815C29.2112 14.9745 29.2203 14.9648 29.2267 14.9533C29.233 14.9418 29.2363 14.9289 29.2363 14.9157V14.2315C29.2364 14.2184 29.2332 14.2056 29.2268 14.1942C29.2204 14.1828 29.2112 14.1732 29.2 14.1665L28.6143 13.8237C28.6036 13.8166 28.5911 13.8125 28.5783 13.8125ZM15.805 17.9085C15.6983 17.9085 15.592 17.9345 15.5015 17.9855L12.6143 19.6672C12.5218 19.7216 12.4451 19.7992 12.3919 19.8923C12.3386 19.9855 12.3107 20.091 12.3108 20.1982V23.554C12.3108 23.7725 12.4263 23.9765 12.6143 24.086L13.3743 24.5225C13.7433 24.7045 13.8735 24.704 14.0398 24.704C14.5823 24.704 14.8935 24.3692 14.8935 23.794V20.4827C14.8932 20.4597 14.884 20.4377 14.8678 20.4213C14.8515 20.4049 14.8296 20.3955 14.8065 20.395H14.438C14.4149 20.3954 14.3928 20.4048 14.3765 20.4211C14.3602 20.4375 14.3509 20.4596 14.3505 20.4827V23.7947C14.3505 24.0495 14.0833 24.3047 13.6565 24.0865L12.8678 23.6277C12.8388 23.6132 12.824 23.5762 12.824 23.5472V20.1907C12.824 20.1617 12.8388 20.1257 12.8678 20.111L15.754 18.4367C15.7758 18.4222 15.8123 18.4222 15.8413 18.4367L18.7283 20.111C18.757 20.1257 18.7713 20.1545 18.7713 20.191V23.547C18.7713 23.5832 18.757 23.613 18.7283 23.6275L15.8413 25.3092C15.8195 25.3237 15.783 25.3237 15.754 25.3092L15.0163 24.8645C14.9945 24.85 14.9655 24.8427 14.9438 24.8572C14.7413 24.9737 14.7058 24.989 14.5103 25.0545C14.4668 25.069 14.3945 25.0977 14.539 25.1777L15.5015 25.7532C15.5955 25.804 15.6965 25.833 15.805 25.833C15.9135 25.833 16.0218 25.8042 16.1085 25.768L18.9958 24.0862C19.0885 24.0318 19.1652 23.9541 19.2185 23.8607C19.2717 23.7674 19.2996 23.6617 19.2993 23.5542V20.1982C19.2993 19.9797 19.1838 19.7765 18.9958 19.6672L16.1085 17.9855C16.0155 17.9345 15.9111 17.908 15.805 17.9085ZM20.3125 19.441C20.1644 19.4416 20.0225 19.501 19.9181 19.6061C19.8137 19.7113 19.7553 19.8536 19.7558 20.0017C19.7554 20.1499 19.8138 20.2921 19.9182 20.3972C20.0226 20.5023 20.1644 20.5617 20.3125 20.5622C20.6168 20.5622 20.8695 20.3075 20.8695 20.0017C20.8688 19.8539 20.8099 19.7124 20.7057 19.6075C20.6016 19.5027 20.4603 19.4427 20.3125 19.441ZM20.305 19.5358C20.3667 19.535 20.4278 19.5465 20.485 19.5696C20.5421 19.5927 20.5941 19.6269 20.6379 19.6702C20.6817 19.7136 20.7165 19.7652 20.7401 19.8222C20.7638 19.8791 20.7759 19.9401 20.7758 20.0017C20.7758 20.2567 20.5658 20.4752 20.3053 20.4752C20.0523 20.4752 19.8423 20.2637 19.8423 20.0017C19.8423 19.7397 20.0593 19.5358 20.305 19.5358ZM20.1028 19.6885V20.329H20.2263V20.075H20.3348C20.3783 20.075 20.3925 20.0895 20.3998 20.1258C20.3998 20.1333 20.4213 20.2932 20.4213 20.3222H20.5513C20.5368 20.2932 20.5295 20.2057 20.5223 20.1547C20.5153 20.0747 20.5083 20.0165 20.4213 20.0092C20.4648 19.9945 20.537 19.9727 20.537 19.8562C20.537 19.6887 20.392 19.6888 20.32 19.6888L20.1028 19.6885ZM20.2115 19.7905H20.3125C20.349 19.7905 20.4065 19.7905 20.4065 19.8777C20.4065 19.9067 20.3925 19.9655 20.3125 19.9655H20.2113L20.2115 19.7905ZM16.594 20.293C15.769 20.293 15.277 20.6425 15.277 21.2322C15.277 21.8657 15.769 22.0397 16.5578 22.12C17.5053 22.2147 17.5778 22.3533 17.5778 22.5425C17.5778 22.87 17.3168 23.0085 16.709 23.0085C15.942 23.0085 15.7758 22.819 15.7178 22.4332C15.7178 22.3895 15.6823 22.3607 15.6388 22.3607H15.2625C15.2396 22.361 15.2176 22.3703 15.2014 22.3866C15.1852 22.403 15.1761 22.425 15.176 22.448C15.176 22.943 15.4363 23.5255 16.7028 23.5255C17.614 23.5255 18.1423 23.161 18.1423 22.5205C18.1423 21.8942 17.7223 21.727 16.8328 21.6105C15.9353 21.494 15.8415 21.4285 15.8415 21.2175C15.8415 21.0427 15.921 20.81 16.5865 20.81C17.1798 20.81 17.4038 20.9413 17.4908 21.3415C17.4952 21.3596 17.5053 21.3757 17.5197 21.3874C17.5341 21.3992 17.552 21.4059 17.5705 21.4065H17.9538C17.9758 21.4065 17.9975 21.3922 18.0123 21.3777C18.0254 21.3583 18.0328 21.3355 18.0335 21.312C17.9758 20.6132 17.5203 20.293 16.594 20.293Z" fill="#5FA04E"/>
<path d="M21.518 6.16408C21.4872 6.16363 21.4569 6.1713 21.43 6.18633C21.4021 6.20273 21.3788 6.22598 21.3624 6.2539C21.346 6.28181 21.337 6.31346 21.3363 6.34583V11.0781C21.3363 11.1216 21.3138 11.1656 21.2705 11.1946C21.2505 11.2053 21.2282 11.2109 21.2055 11.2109C21.1828 11.2109 21.1605 11.2053 21.1405 11.1946L20.374 10.7508C20.3177 10.7187 20.2541 10.7018 20.1893 10.7018C20.1245 10.7018 20.0608 10.7187 20.0045 10.7508L16.9375 12.5346C16.8808 12.5666 16.8335 12.613 16.8004 12.6692C16.7674 12.7253 16.7497 12.7892 16.7493 12.8543V16.4143C16.7493 16.5453 16.8218 16.6693 16.9375 16.7348L20.005 18.5186C20.0613 18.5507 20.1249 18.5676 20.1896 18.5676C20.2544 18.5676 20.318 18.5507 20.3743 18.5186L23.4415 16.7348C23.5573 16.6693 23.6298 16.5453 23.6298 16.4143V7.54008C23.6298 7.40183 23.5573 7.27758 23.4415 7.21233L21.6115 6.18633C21.5826 6.17182 21.5504 6.16421 21.518 6.16408ZM3.42176 10.6056C3.36401 10.6056 3.30626 10.6266 3.25576 10.6556L0.188264 12.4328C0.130613 12.4656 0.082768 12.5132 0.0496734 12.5707C0.0165789 12.6282 -0.000564727 12.6935 1.41908e-05 12.7598L0.00751419 17.5353C0.00751419 17.6011 0.0432642 17.6666 0.101264 17.6958C0.128152 17.7135 0.159608 17.7229 0.191764 17.7229C0.223921 17.7229 0.255376 17.7135 0.282264 17.6958L2.10576 16.6476C2.22151 16.5821 2.29326 16.4581 2.29326 16.3271V14.0921C2.29326 13.9611 2.36576 13.8371 2.48176 13.7716L3.25576 13.3203C3.31351 13.2838 3.37901 13.2693 3.44401 13.2693C3.50901 13.2693 3.57426 13.2838 3.62501 13.3203L4.39901 13.7716C4.51476 13.8371 4.58726 13.9611 4.58726 14.0921V16.3271C4.58726 16.4581 4.65926 16.5821 4.77476 16.6476L6.58376 17.6958C6.61188 17.7138 6.64454 17.7233 6.67789 17.7233C6.71124 17.7233 6.7439 17.7138 6.77201 17.6958C6.80081 17.6802 6.82479 17.6569 6.84135 17.6287C6.85792 17.6004 6.86645 17.5681 6.86601 17.5353V12.7598C6.86601 12.6288 6.79351 12.5048 6.67751 12.4391L3.61751 10.6556C3.56596 10.6282 3.50958 10.6112 3.45151 10.6053L3.42176 10.6056ZM28.5885 10.6581C28.5253 10.6581 28.4625 10.6746 28.4045 10.7076L25.3365 12.4903C25.2208 12.5558 25.149 12.6798 25.149 12.8111V16.3711C25.149 16.5021 25.2208 16.6261 25.3365 16.6916L28.3825 18.4383C28.4374 18.4705 28.4998 18.4875 28.5634 18.4875C28.627 18.4875 28.6894 18.4705 28.7443 18.4383L30.5893 17.4051C30.618 17.3894 30.6419 17.3662 30.6585 17.3379C30.675 17.3096 30.6835 17.2773 30.683 17.2446C30.6834 17.2119 30.6748 17.1798 30.6583 17.1516C30.6418 17.1234 30.6179 17.1002 30.5893 17.0846L27.5075 15.3006C27.4795 15.2841 27.4561 15.2607 27.4397 15.2327C27.4233 15.2046 27.4144 15.1728 27.4138 15.1403V14.0263C27.4134 13.9937 27.4219 13.9615 27.4384 13.9333C27.455 13.9051 27.4788 13.882 27.5075 13.8663L28.47 13.3128C28.4981 13.2949 28.5308 13.2854 28.5641 13.2854C28.5975 13.2854 28.6301 13.2949 28.6583 13.3128L29.6198 13.8661C29.6479 13.8824 29.6714 13.9058 29.688 13.9338C29.7045 13.9619 29.7136 13.9938 29.7143 14.0263V14.9001C29.7143 14.9658 29.7503 15.0313 29.808 15.0603C29.8362 15.0783 29.8689 15.0879 29.9023 15.0879C29.9357 15.0879 29.9684 15.0783 29.9965 15.0603L31.8193 13.9903C31.8752 13.9577 31.9214 13.9108 31.9532 13.8545C31.985 13.7981 32.0012 13.7343 32.0003 13.6696V12.8033C32.0003 12.6723 31.9278 12.5491 31.8193 12.4833L28.7733 10.7073C28.7171 10.6752 28.6535 10.6581 28.5888 10.6578L28.5885 10.6581ZM20.1893 13.3166C20.2055 13.3166 20.222 13.3203 20.2368 13.3278L21.2853 13.9393C21.3143 13.9538 21.329 13.9898 21.329 14.0191V15.2421C21.329 15.2786 21.3143 15.3081 21.2853 15.3226L20.2365 15.9341C20.2218 15.9413 20.2056 15.945 20.1893 15.945C20.1729 15.945 20.1567 15.9413 20.142 15.9341L19.0933 15.3226C19.0643 15.3081 19.0495 15.2713 19.0495 15.2421V14.0191C19.0495 13.9826 19.0645 13.9538 19.0933 13.9391L20.142 13.3278C20.1567 13.3202 20.1727 13.3163 20.1893 13.3166Z" fill="#333333"/>
<path d="M11.9954 10.7251C11.9393 10.6928 11.8757 10.6758 11.8109 10.6758C11.7462 10.6758 11.6826 10.6928 11.6264 10.7251L8.58045 12.4943C8.52463 12.5269 8.47846 12.5737 8.44665 12.63C8.41485 12.6862 8.39856 12.7499 8.39945 12.8146V16.3598C8.39945 16.4911 8.47195 16.6148 8.58045 16.6803L11.6264 18.4493C11.6826 18.4816 11.7462 18.4986 11.8109 18.4986C11.8757 18.4986 11.9393 18.4816 11.9954 18.4493L15.0412 16.6803C15.1569 16.6148 15.2222 16.4911 15.2222 16.3598V12.8146C15.2222 12.6836 15.1497 12.5596 15.0412 12.4943L11.9954 10.7251Z" fill="url(#paint0_linear_728_3)"/>
<path d="M15.0486 12.493L11.9883 10.7238C11.9583 10.7085 11.9268 10.6964 11.8943 10.6875L8.46484 16.5915C8.49384 16.628 8.52984 16.657 8.56609 16.679L11.6266 18.448C11.7133 18.499 11.8146 18.5135 11.9086 18.4842L15.1283 12.5585C15.1072 12.5308 15.0799 12.5084 15.0486 12.493Z" fill="url(#paint1_linear_728_3)"/>
<path d="M15.0486 16.6772C15.1356 16.6262 15.2006 16.539 15.2296 16.4442L11.8796 10.6785C11.7931 10.664 11.6988 10.6712 11.6193 10.7222L8.58057 12.484L11.8581 18.4972C11.9013 18.49 11.9521 18.4755 11.9956 18.4535L15.0486 16.6772Z" fill="url(#paint2_linear_728_3)"/>
</g>
<defs>
<linearGradient id="paint0_linear_728_3" x1="13.0513" y1="12.0425" x2="10.2696" y2="17.682" gradientUnits="userSpaceOnUse">
<stop stop-color="#3F873F"/>
<stop offset="0.33" stop-color="#3F8B3D"/>
<stop offset="0.637" stop-color="#3E9638"/>
<stop offset="0.934" stop-color="#3DA92E"/>
<stop offset="1" stop-color="#3DAE2B"/>
</linearGradient>
<linearGradient id="paint1_linear_728_3" x1="11.3482" y1="14.9999" x2="19.1095" y2="9.30067" gradientUnits="userSpaceOnUse">
<stop offset="0.138" stop-color="#3F873F"/>
<stop offset="0.402" stop-color="#52A044"/>
<stop offset="0.713" stop-color="#64B749"/>
<stop offset="0.908" stop-color="#6ABF4B"/>
</linearGradient>
<linearGradient id="paint2_linear_728_3" x1="8.28814" y1="14.5831" x2="15.3362" y2="14.5831" gradientUnits="userSpaceOnUse">
<stop offset="0.092" stop-color="#6ABF4B"/>
<stop offset="0.287" stop-color="#64B749"/>
<stop offset="0.598" stop-color="#52A044"/>
<stop offset="0.862" stop-color="#3F873F"/>
</linearGradient>
<clipPath id="clip0_728_3">
<rect width="32" height="32" fill="white"/>
</clipPath>
</defs>
</svg>
