<svg width="32" height="32" viewBox="0 0 32 32" fill="none" xmlns="http://www.w3.org/2000/svg">
<g clip-path="url(#clip0_747_101)">
<mask id="mask0_747_101" style="mask-type:alpha" maskUnits="userSpaceOnUse" x="6" y="0" width="24" height="32">
<path d="M28.665 0C29.4022 0 30 0.597698 30 1.335V30.665C30 31.4022 29.4022 32 28.665 32H7.33334C6.59696 32 6 31.403 6 30.6666V17.3333C6 16.597 6.59696 16 7.33334 16H12.5V9.33334C12.5 8.59696 13.097 8 13.8333 8H19V1.335C19 0.5977 19.5977 0 20.335 0H28.665Z" fill="white"/>
</mask>
<g mask="url(#mask0_747_101)">
<path d="M26 1.335V30.665C26 31.4022 25.4022 32 24.665 32H16.335C15.5977 32 15 31.4022 15 30.665V1.335C15 0.5977 15.5977 0 16.335 0H24.665C25.4024 0 26 0.597698 26 1.335Z" fill="url(#paint0_linear_747_101)"/>
<g filter="url(#filter0_dd_747_101)">
<path d="M19.5 9.33334V32H8.5V9.33334C8.5 8.59696 9.09696 8 9.83334 8H18.1666C18.903 8 19.5 8.59696 19.5 9.33334Z" fill="url(#paint1_linear_747_101)"/>
</g>
<path d="M2 17.3333V30.6666C2 31.403 2.59696 32 3.33334 32H13V17.3333C13 16.597 12.403 16 11.6667 16H3.33334C2.59696 16 2 16.597 2 17.3333Z" fill="url(#paint2_linear_747_101)"/>
</g>
</g>
<defs>
<filter id="filter0_dd_747_101" x="3.16666" y="3.99999" width="21.6667" height="34.6667" filterUnits="userSpaceOnUse" color-interpolation-filters="sRGB">
<feFlood flood-opacity="0" result="BackgroundImageFix"/>
<feColorMatrix in="SourceAlpha" type="matrix" values="0 0 0 0 0 0 0 0 0 0 0 0 0 0 0 0 0 0 127 0" result="hardAlpha"/>
<feOffset dy="0.253333"/>
<feGaussianBlur stdDeviation="0.253333"/>
<feColorMatrix type="matrix" values="0 0 0 0 0 0 0 0 0 0 0 0 0 0 0 0 0 0 0.2 0"/>
<feBlend mode="normal" in2="BackgroundImageFix" result="effect1_dropShadow_747_101"/>
<feColorMatrix in="SourceAlpha" type="matrix" values="0 0 0 0 0 0 0 0 0 0 0 0 0 0 0 0 0 0 127 0" result="hardAlpha"/>
<feOffset dy="1.33333"/>
<feGaussianBlur stdDeviation="2.66667"/>
<feColorMatrix type="matrix" values="0 0 0 0 0 0 0 0 0 0 0 0 0 0 0 0 0 0 0.18 0"/>
<feBlend mode="normal" in2="effect1_dropShadow_747_101" result="effect2_dropShadow_747_101"/>
<feBlend mode="normal" in="SourceGraphic" in2="effect2_dropShadow_747_101" result="shape"/>
</filter>
<linearGradient id="paint0_linear_747_101" x1="13.1667" y1="-3.1004e-07" x2="26.9564" y2="30.143" gradientUnits="userSpaceOnUse">
<stop stop-color="#E6AD10"/>
<stop offset="1" stop-color="#C87E0E"/>
</linearGradient>
<linearGradient id="paint1_linear_747_101" x1="8.4991" y1="8" x2="20.1158" y2="31.2334" gradientUnits="userSpaceOnUse">
<stop stop-color="#F6D751"/>
<stop offset="1" stop-color="#E6AD10"/>
</linearGradient>
<linearGradient id="paint2_linear_747_101" x1="1.9991" y1="16" x2="8.39568" y2="31.6336" gradientUnits="userSpaceOnUse">
<stop stop-color="#F9E589"/>
<stop offset="1" stop-color="#F6D751"/>
</linearGradient>
<clipPath id="clip0_747_101">
<rect width="32" height="32" fill="white"/>
</clipPath>
</defs>
</svg>
