<svg width="32" height="32" viewBox="0 0 32 32" fill="none" xmlns="http://www.w3.org/2000/svg">
<g clip-path="url(#clip0_733_38)">
<path d="M15.8644 0.0078125C7.76044 0.0078125 8.26644 3.53597 8.26644 3.53597L8.27544 7.19125H16.0089V8.28866H5.20382C5.20382 8.28866 0.0180664 7.69823 0.0180664 15.9072C0.0180664 24.1164 4.54432 23.8252 4.54432 23.8252H7.24557V20.0158C7.24557 20.0158 7.09994 15.4718 11.6996 15.4718H19.3698C19.3698 15.4718 23.6792 15.5417 23.6792 11.2906V4.26168C23.6792 4.26168 24.3337 0.0078125 15.8644 0.0078125ZM11.6002 2.46591C11.7829 2.46575 11.9639 2.50176 12.1328 2.5719C12.3017 2.64203 12.4551 2.7449 12.5843 2.87463C12.7135 3.00436 12.816 3.1584 12.8859 3.32793C12.9557 3.49746 12.9916 3.67916 12.9914 3.86262C12.9916 4.04609 12.9557 4.22778 12.8859 4.39731C12.816 4.56684 12.7135 4.72088 12.5843 4.85061C12.4551 4.98034 12.3017 5.08321 12.1328 5.15335C11.9639 5.22348 11.7829 5.25949 11.6002 5.25933C11.4174 5.25949 11.2365 5.22348 11.0676 5.15335C10.8987 5.08321 10.7453 4.98034 10.6161 4.85061C10.4868 4.72088 10.3844 4.56684 10.3145 4.39731C10.2447 4.22778 10.2088 4.04609 10.2089 3.86262C10.2088 3.67916 10.2447 3.49746 10.3145 3.32793C10.3844 3.1584 10.4868 3.00436 10.6161 2.87463C10.7453 2.7449 10.8987 2.64203 11.0676 2.5719C11.2365 2.50176 11.4174 2.46575 11.6002 2.46591Z" fill="url(#paint0_linear_733_38)"/>
<path d="M16.0947 31.889C24.1987 31.889 23.6927 28.3608 23.6927 28.3608L23.6837 24.7057H15.95V23.6083H26.7552C26.7552 23.6083 31.9409 24.1987 31.9409 15.9895C31.9409 7.78045 27.4147 8.07159 27.4147 8.07159H24.7134V11.8808C24.7134 11.8808 24.859 16.4248 20.2594 16.4248H12.5892C12.5892 16.4248 8.27979 16.3549 8.27979 20.6062V27.6353C8.27979 27.6353 7.62541 31.889 16.0945 31.889M20.3588 29.4311C20.176 29.4313 19.9951 29.3953 19.8262 29.3252C19.6573 29.255 19.5039 29.1522 19.3747 29.0224C19.2454 28.8927 19.143 28.7387 19.0731 28.5691C19.0033 28.3996 18.9674 28.2179 18.9675 28.0344C18.9674 27.851 19.0032 27.6693 19.0731 27.4997C19.1429 27.3302 19.2454 27.1761 19.3746 27.0464C19.5038 26.9166 19.6573 26.8137 19.8262 26.7436C19.995 26.6735 20.176 26.6374 20.3588 26.6376C20.5415 26.6374 20.7225 26.6735 20.8914 26.7436C21.0603 26.8137 21.2137 26.9166 21.3429 27.0463C21.4721 27.1761 21.5746 27.3301 21.6445 27.4996C21.7143 27.6692 21.7502 27.8509 21.75 28.0343C21.7502 28.2178 21.7143 28.3995 21.6445 28.569C21.5746 28.7385 21.4721 28.8926 21.3429 29.0223C21.2137 29.152 21.0603 29.2549 20.8914 29.325C20.7225 29.3952 20.5415 29.4313 20.3588 29.4311Z" fill="url(#paint1_linear_733_38)"/>
</g>
<defs>
<linearGradient id="paint0_linear_733_38" x1="306.795" y1="286.761" x2="1894.92" y2="1852.9" gradientUnits="userSpaceOnUse">
<stop stop-color="#387EB8"/>
<stop offset="1" stop-color="#366994"/>
</linearGradient>
<linearGradient id="paint1_linear_733_38" x1="461.082" y1="498.235" x2="2166.24" y2="2103.88" gradientUnits="userSpaceOnUse">
<stop stop-color="#FFE052"/>
<stop offset="1" stop-color="#FFC331"/>
</linearGradient>
<clipPath id="clip0_733_38">
<rect width="32" height="32" fill="white"/>
</clipPath>
</defs>
</svg>
