<svg width="24" height="20" viewBox="0 0 24 20" fill="none" xmlns="http://www.w3.org/2000/svg">
<g clip-path="url(#clip0_760_173)">
<path d="M11.5687 5.07453C11.835 4.83828 11.94 4.46703 11.8012 4.13703C11.715 3.93828 11.6212 3.74328 11.5162 3.55578L11.4 3.35328C11.2875 3.16578 11.1637 2.98203 11.0325 2.80578C10.8187 2.52078 10.4437 2.42703 10.1062 2.53953L9.04874 2.88828C8.64749 2.55828 8.18624 2.28828 7.69124 2.10453L7.46249 1.01703C7.39124 0.668281 7.12124 0.390781 6.76874 0.349531C6.52124 0.315781 6.26999 0.300781 6.01499 0.300781H5.98874C5.73374 0.300781 5.48249 0.315781 5.23499 0.345781C4.88249 0.387031 4.61249 0.668281 4.54124 1.01328L4.31249 2.10453C3.81374 2.29203 3.35624 2.55828 2.95499 2.88828L1.89374 2.54328C1.55624 2.43078 1.18124 2.52453 0.967491 2.80953C0.836241 2.98578 0.712491 3.16953 0.596241 3.35703L0.483741 3.55578C0.378741 3.74328 0.284991 3.93828 0.198741 4.14078C0.0599912 4.46703 0.164991 4.83828 0.431241 5.07828L1.26374 5.82078C1.22249 6.07203 1.19999 6.33453 1.19999 6.60078C1.19999 6.86703 1.22249 7.12953 1.26374 7.38453L0.431241 8.12703C0.164991 8.36328 0.0599912 8.73453 0.198741 9.06453C0.284991 9.26328 0.378741 9.45828 0.483741 9.64953L0.596241 9.84453C0.708741 10.0358 0.832491 10.2158 0.967491 10.392C1.18124 10.677 1.55624 10.7708 1.89374 10.6583L2.95124 10.3095C3.35249 10.6395 3.81374 10.9095 4.30874 11.0933L4.53749 12.1845C4.60874 12.5333 4.87874 12.8108 5.23124 12.852C5.48249 12.882 5.73749 12.897 5.99624 12.897C6.38437 12.897 6.50999 12.882 6.76124 12.852C7.11374 12.8108 7.38374 12.5295 7.45499 12.1845L7.68374 11.0933C8.18249 10.9058 8.63999 10.6395 9.04124 10.3095L10.0987 10.6583C10.4362 10.7708 10.8112 10.677 11.025 10.392C11.1562 10.2158 11.28 10.0358 11.3925 9.84453L11.5087 9.64203C11.6137 9.45453 11.7075 9.25953 11.7937 9.06078C11.9325 8.73453 11.8275 8.36328 11.5612 8.12328L10.7287 7.38078C10.77 7.12578 10.7925 6.86328 10.7925 6.59703C10.7925 6.33078 10.77 6.06828 10.7287 5.81328L11.5612 5.07078L11.5687 5.07453ZM4.19999 6.60078C4.19999 6.12339 4.38963 5.66555 4.7272 5.32799C5.06477 4.99042 5.5226 4.80078 5.99999 4.80078C6.47738 4.80078 6.93522 4.99042 7.27278 5.32799C7.61035 5.66555 7.79999 6.12339 7.79999 6.60078C7.79999 7.07817 7.61035 7.53601 7.27278 7.87357C6.93522 8.21114 6.47738 8.40078 5.99999 8.40078C5.5226 8.40078 5.06477 8.21114 4.7272 7.87357C4.38963 7.53601 4.19999 7.07817 4.19999 6.60078ZM18.9262 18.7695C19.1625 19.0358 19.5337 19.1408 19.8637 19.002C20.0625 18.9158 20.2575 18.822 20.445 18.717L20.6475 18.6008C20.835 18.4883 21.0187 18.3645 21.195 18.2333C21.48 18.0195 21.5737 17.6445 21.4612 17.307L21.1125 16.2495C21.4425 15.8483 21.7125 15.387 21.8962 14.892L22.9875 14.6633C23.3362 14.592 23.6137 14.322 23.655 13.9695C23.685 13.7183 23.7 13.4633 23.7 13.2045C23.7 12.8164 23.685 12.6908 23.655 12.4395C23.6137 12.087 23.3325 11.817 22.9875 11.7458L21.8962 11.5133C21.7087 11.0145 21.4425 10.557 21.1125 10.1558L21.4612 9.09828C21.5737 8.76078 21.48 8.38578 21.195 8.17203C21.0187 8.04078 20.835 7.91703 20.6475 7.80078L20.4487 7.68828C20.2612 7.58328 20.0662 7.48953 19.8637 7.40328C19.5375 7.26453 19.1662 7.36953 18.9262 7.63578L18.1837 8.46828C17.9287 8.42703 17.6662 8.40453 17.4 8.40453C17.1337 8.40453 16.8712 8.42703 16.6162 8.46828L15.8737 7.63578C15.6375 7.36953 15.2662 7.26453 14.9362 7.40328C14.7375 7.48953 14.5425 7.58328 14.3512 7.68828L14.1562 7.80078C13.965 7.91328 13.785 8.03703 13.6087 8.17203C13.3237 8.38578 13.23 8.76078 13.3425 9.09828L13.6912 10.1558C13.3612 10.557 13.0912 11.0183 12.9075 11.5133L11.8162 11.7383C11.4675 11.8095 11.19 12.0795 11.1487 12.432C11.1187 12.6833 11.1037 12.9383 11.1037 13.197C11.1037 13.5852 11.1187 13.7108 11.1487 13.962C11.19 14.3145 11.4712 14.5845 11.8162 14.6558L12.9075 14.8845C13.095 15.3833 13.3612 15.8408 13.6912 16.242L13.3425 17.2995C13.23 17.637 13.3237 18.012 13.6087 18.2258C13.785 18.357 13.965 18.4808 14.1562 18.5933L14.3587 18.7095C14.5462 18.8145 14.7412 18.9083 14.94 18.9945C15.2662 19.1333 15.6375 19.0283 15.8775 18.762L16.62 17.9295C16.875 17.9708 17.1375 17.9933 17.4037 17.9933C17.67 17.9933 17.9325 17.9708 18.1875 17.9295L18.93 18.762L18.9262 18.7695ZM17.4 11.4008C17.6364 11.4008 17.8704 11.4473 18.0888 11.5378C18.3072 11.6283 18.5056 11.7608 18.6728 11.928C18.8399 12.0951 18.9725 12.2936 19.063 12.512C19.1534 12.7303 19.2 12.9644 19.2 13.2008C19.2 13.4372 19.1534 13.6712 19.063 13.8896C18.9725 14.108 18.8399 14.3064 18.6728 14.4736C18.5056 14.6407 18.3072 14.7733 18.0888 14.8638C17.8704 14.9542 17.6364 15.0008 17.4 15.0008C17.1636 15.0008 16.9295 14.9542 16.7112 14.8638C16.4928 14.7733 16.2943 14.6407 16.1272 14.4736C15.9601 14.3064 15.8275 14.108 15.737 13.8896C15.6466 13.6712 15.6 13.4372 15.6 13.2008C15.6 12.9644 15.6466 12.7303 15.737 12.512C15.8275 12.2936 15.9601 12.0951 16.1272 11.928C16.2943 11.7608 16.4928 11.6283 16.7112 11.5378C16.9295 11.4473 17.1636 11.4008 17.4 11.4008Z" fill="url(#paint0_linear_760_173)"/>
<path d="M4.19999 6.60078C4.19999 6.12339 4.38963 5.66555 4.7272 5.32799C5.06477 4.99042 5.5226 4.80078 5.99999 4.80078C6.47738 4.80078 6.93522 4.99042 7.27278 5.32799C7.61035 5.66555 7.79999 6.12339 7.79999 6.60078C7.79999 7.07817 7.61035 7.53601 7.27278 7.87357C6.93522 8.21114 6.47738 8.40078 5.99999 8.40078C5.5226 8.40078 5.06477 8.21114 4.7272 7.87357C4.38963 7.53601 4.19999 7.07817 4.19999 6.60078Z" fill="url(#paint1_linear_760_173)"/>
<path d="M17.4 11.4008C17.6364 11.4008 17.8704 11.4473 18.0888 11.5378C18.3072 11.6283 18.5056 11.7608 18.6728 11.928C18.8399 12.0951 18.9725 12.2936 19.063 12.512C19.1534 12.7303 19.2 12.9644 19.2 13.2008C19.2 13.4372 19.1534 13.6712 19.063 13.8896C18.9725 14.108 18.8399 14.3064 18.6728 14.4736C18.5056 14.6407 18.3072 14.7733 18.0888 14.8638C17.8704 14.9542 17.6364 15.0008 17.4 15.0008C17.1636 15.0008 16.9295 14.9542 16.7112 14.8638C16.4928 14.7733 16.2943 14.6407 16.1272 14.4736C15.9601 14.3064 15.8275 14.108 15.737 13.8896C15.6466 13.6712 15.6 13.4372 15.6 13.2008C15.6 12.9644 15.6466 12.7303 15.737 12.512C15.8275 12.2936 15.9601 12.0951 16.1272 11.928C16.2943 11.7608 16.4928 11.6283 16.7112 11.5378C16.9295 11.4473 17.1636 11.4008 17.4 11.4008Z" fill="url(#paint2_linear_760_173)"/>
<path d="M11.5687 5.07453C11.835 4.83828 11.94 4.46703 11.8012 4.13703C11.715 3.93828 11.6212 3.74328 11.5162 3.55578L11.4 3.35328C11.2875 3.16578 11.1637 2.98203 11.0325 2.80578C10.8187 2.52078 10.4437 2.42703 10.1062 2.53953L9.04874 2.88828C8.64749 2.55828 8.18624 2.28828 7.69124 2.10453L7.46249 1.01703C7.39124 0.668281 7.12124 0.390781 6.76874 0.349531C6.52124 0.315781 6.26999 0.300781 6.01499 0.300781H5.98874C5.73374 0.300781 5.48249 0.315781 5.23499 0.345781C4.88249 0.387031 4.61249 0.668281 4.54124 1.01328L4.31249 2.10453C3.81374 2.29203 3.35624 2.55828 2.95499 2.88828L1.89374 2.54328C1.55624 2.43078 1.18124 2.52453 0.967491 2.80953C0.836241 2.98578 0.712491 3.16953 0.596241 3.35703L0.483741 3.55578C0.378741 3.74328 0.284991 3.93828 0.198741 4.14078C0.0599912 4.46703 0.164991 4.83828 0.431241 5.07828L1.26374 5.82078C1.22249 6.07203 1.19999 6.33453 1.19999 6.60078C1.19999 6.86703 1.22249 7.12953 1.26374 7.38453L0.431241 8.12703C0.164991 8.36328 0.0599912 8.73453 0.198741 9.06453C0.284991 9.26328 0.378741 9.45828 0.483741 9.64953L0.596241 9.84453C0.708741 10.0358 0.832491 10.2158 0.967491 10.392C1.18124 10.677 1.55624 10.7708 1.89374 10.6583L2.95124 10.3095C3.35249 10.6395 3.81374 10.9095 4.30874 11.0933L4.53749 12.1845C4.60874 12.5333 4.87874 12.8108 5.23124 12.852C5.48249 12.882 5.73749 12.897 5.99624 12.897C6.38437 12.897 6.50999 12.882 6.76124 12.852C7.11374 12.8108 7.38374 12.5295 7.45499 12.1845L7.68374 11.0933C8.18249 10.9058 8.63999 10.6395 9.04124 10.3095L10.0987 10.6583C10.4362 10.7708 10.8112 10.677 11.025 10.392C11.1562 10.2158 11.28 10.0358 11.3925 9.84453L11.5087 9.64203C11.6137 9.45453 11.7075 9.25953 11.7937 9.06078C11.9325 8.73453 11.8275 8.36328 11.5612 8.12328L10.7287 7.38078C10.77 7.12578 10.7925 6.86328 10.7925 6.59703C10.7925 6.33078 10.77 6.06828 10.7287 5.81328L11.5612 5.07078L11.5687 5.07453ZM4.19999 6.60078C4.19999 6.12339 4.38963 5.66555 4.7272 5.32799C5.06477 4.99042 5.5226 4.80078 5.99999 4.80078C6.47738 4.80078 6.93522 4.99042 7.27278 5.32799C7.61035 5.66555 7.79999 6.12339 7.79999 6.60078C7.79999 7.07817 7.61035 7.53601 7.27278 7.87357C6.93522 8.21114 6.47738 8.40078 5.99999 8.40078C5.5226 8.40078 5.06477 8.21114 4.7272 7.87357C4.38963 7.53601 4.19999 7.07817 4.19999 6.60078ZM18.9262 18.7695C19.1625 19.0358 19.5337 19.1408 19.8637 19.002C20.0625 18.9158 20.2575 18.822 20.445 18.717L20.6475 18.6008C20.835 18.4883 21.0187 18.3645 21.195 18.2333C21.48 18.0195 21.5737 17.6445 21.4612 17.307L21.1125 16.2495C21.4425 15.8483 21.7125 15.387 21.8962 14.892L22.9875 14.6633C23.3362 14.592 23.6137 14.322 23.655 13.9695C23.685 13.7183 23.7 13.4633 23.7 13.2045C23.7 12.8164 23.685 12.6908 23.655 12.4395C23.6137 12.087 23.3325 11.817 22.9875 11.7458L21.8962 11.5133C21.7087 11.0145 21.4425 10.557 21.1125 10.1558L21.4612 9.09828C21.5737 8.76078 21.48 8.38578 21.195 8.17203C21.0187 8.04078 20.835 7.91703 20.6475 7.80078L20.4487 7.68828C20.2612 7.58328 20.0662 7.48953 19.8637 7.40328C19.5375 7.26453 19.1662 7.36953 18.9262 7.63578L18.1837 8.46828C17.9287 8.42703 17.6662 8.40453 17.4 8.40453C17.1337 8.40453 16.8712 8.42703 16.6162 8.46828L15.8737 7.63578C15.6375 7.36953 15.2662 7.26453 14.9362 7.40328C14.7375 7.48953 14.5425 7.58328 14.3512 7.68828L14.1562 7.80078C13.965 7.91328 13.785 8.03703 13.6087 8.17203C13.3237 8.38578 13.23 8.76078 13.3425 9.09828L13.6912 10.1558C13.3612 10.557 13.0912 11.0183 12.9075 11.5133L11.8162 11.7383C11.4675 11.8095 11.19 12.0795 11.1487 12.432C11.1187 12.6833 11.1037 12.9383 11.1037 13.197C11.1037 13.5852 11.1187 13.7108 11.1487 13.962C11.19 14.3145 11.4712 14.5845 11.8162 14.6558L12.9075 14.8845C13.095 15.3833 13.3612 15.8408 13.6912 16.242L13.3425 17.2995C13.23 17.637 13.3237 18.012 13.6087 18.2258C13.785 18.357 13.965 18.4808 14.1562 18.5933L14.3587 18.7095C14.5462 18.8145 14.7412 18.9083 14.94 18.9945C15.2662 19.1333 15.6375 19.0283 15.8775 18.762L16.62 17.9295C16.875 17.9708 17.1375 17.9933 17.4037 17.9933C17.67 17.9933 17.9325 17.9708 18.1875 17.9295L18.93 18.762L18.9262 18.7695ZM17.4 11.4008C17.6364 11.4008 17.8704 11.4473 18.0888 11.5378C18.3072 11.6283 18.5056 11.7608 18.6728 11.928C18.8399 12.0951 18.9725 12.2936 19.063 12.512C19.1534 12.7303 19.2 12.9644 19.2 13.2008C19.2 13.4372 19.1534 13.6712 19.063 13.8896C18.9725 14.108 18.8399 14.3064 18.6728 14.4736C18.5056 14.6407 18.3072 14.7733 18.0888 14.8638C17.8704 14.9542 17.6364 15.0008 17.4 15.0008C17.1636 15.0008 16.9295 14.9542 16.7112 14.8638C16.4928 14.7733 16.2943 14.6407 16.1272 14.4736C15.9601 14.3064 15.8275 14.108 15.737 13.8896C15.6466 13.6712 15.6 13.4372 15.6 13.2008C15.6 12.9644 15.6466 12.7303 15.737 12.512C15.8275 12.2936 15.9601 12.0951 16.1272 11.928C16.2943 11.7608 16.4928 11.6283 16.7112 11.5378C16.9295 11.4473 17.1636 11.4008 17.4 11.4008Z" stroke="#18D8D2"/>
<path d="M4.19999 6.60078C4.19999 6.12339 4.38963 5.66555 4.7272 5.32799C5.06477 4.99042 5.5226 4.80078 5.99999 4.80078C6.47738 4.80078 6.93522 4.99042 7.27278 5.32799C7.61035 5.66555 7.79999 6.12339 7.79999 6.60078C7.79999 7.07817 7.61035 7.53601 7.27278 7.87357C6.93522 8.21114 6.47738 8.40078 5.99999 8.40078C5.5226 8.40078 5.06477 8.21114 4.7272 7.87357C4.38963 7.53601 4.19999 7.07817 4.19999 6.60078Z" stroke="#18D8D2"/>
<path d="M17.4 11.4008C17.6364 11.4008 17.8704 11.4473 18.0888 11.5378C18.3072 11.6283 18.5056 11.7608 18.6728 11.928C18.8399 12.0951 18.9725 12.2936 19.063 12.512C19.1534 12.7303 19.2 12.9644 19.2 13.2008C19.2 13.4372 19.1534 13.6712 19.063 13.8896C18.9725 14.108 18.8399 14.3064 18.6728 14.4736C18.5056 14.6407 18.3072 14.7733 18.0888 14.8638C17.8704 14.9542 17.6364 15.0008 17.4 15.0008C17.1636 15.0008 16.9295 14.9542 16.7112 14.8638C16.4928 14.7733 16.2943 14.6407 16.1272 14.4736C15.9601 14.3064 15.8275 14.108 15.737 13.8896C15.6466 13.6712 15.6 13.4372 15.6 13.2008C15.6 12.9644 15.6466 12.7303 15.737 12.512C15.8275 12.2936 15.9601 12.0951 16.1272 11.928C16.2943 11.7608 16.4928 11.6283 16.7112 11.5378C16.9295 11.4473 17.1636 11.4008 17.4 11.4008Z" stroke="#18D8D2"/>
<path d="M11.5687 5.07453C11.835 4.83828 11.94 4.46703 11.8012 4.13703C11.715 3.93828 11.6212 3.74328 11.5162 3.55578L11.4 3.35328C11.2875 3.16578 11.1637 2.98203 11.0325 2.80578C10.8187 2.52078 10.4437 2.42703 10.1062 2.53953L9.04874 2.88828C8.64749 2.55828 8.18624 2.28828 7.69124 2.10453L7.46249 1.01703C7.39124 0.668281 7.12124 0.390781 6.76874 0.349531C6.52124 0.315781 6.26999 0.300781 6.01499 0.300781H5.98874C5.73374 0.300781 5.48249 0.315781 5.23499 0.345781C4.88249 0.387031 4.61249 0.668281 4.54124 1.01328L4.31249 2.10453C3.81374 2.29203 3.35624 2.55828 2.95499 2.88828L1.89374 2.54328C1.55624 2.43078 1.18124 2.52453 0.967491 2.80953C0.836241 2.98578 0.712491 3.16953 0.596241 3.35703L0.483741 3.55578C0.378741 3.74328 0.284991 3.93828 0.198741 4.14078C0.0599912 4.46703 0.164991 4.83828 0.431241 5.07828L1.26374 5.82078C1.22249 6.07203 1.19999 6.33453 1.19999 6.60078C1.19999 6.86703 1.22249 7.12953 1.26374 7.38453L0.431241 8.12703C0.164991 8.36328 0.0599912 8.73453 0.198741 9.06453C0.284991 9.26328 0.378741 9.45828 0.483741 9.64953L0.596241 9.84453C0.708741 10.0358 0.832491 10.2158 0.967491 10.392C1.18124 10.677 1.55624 10.7708 1.89374 10.6583L2.95124 10.3095C3.35249 10.6395 3.81374 10.9095 4.30874 11.0933L4.53749 12.1845C4.60874 12.5333 4.87874 12.8108 5.23124 12.852C5.48249 12.882 5.73749 12.897 5.99624 12.897C6.38437 12.897 6.50999 12.882 6.76124 12.852C7.11374 12.8108 7.38374 12.5295 7.45499 12.1845L7.68374 11.0933C8.18249 10.9058 8.63999 10.6395 9.04124 10.3095L10.0987 10.6583C10.4362 10.7708 10.8112 10.677 11.025 10.392C11.1562 10.2158 11.28 10.0358 11.3925 9.84453L11.5087 9.64203C11.6137 9.45453 11.7075 9.25953 11.7937 9.06078C11.9325 8.73453 11.8275 8.36328 11.5612 8.12328L10.7287 7.38078C10.77 7.12578 10.7925 6.86328 10.7925 6.59703C10.7925 6.33078 10.77 6.06828 10.7287 5.81328L11.5612 5.07078L11.5687 5.07453ZM4.19999 6.60078C4.19999 6.12339 4.38963 5.66555 4.7272 5.32799C5.06476 4.99042 5.5226 4.80078 5.99999 4.80078C6.47738 4.80078 6.93522 4.99042 7.27278 5.32799C7.61035 5.66555 7.79999 6.12339 7.79999 6.60078C7.79999 7.07817 7.61035 7.53601 7.27278 7.87357C6.93522 8.21114 6.47738 8.40078 5.99999 8.40078C5.5226 8.40078 5.06476 8.21114 4.7272 7.87357C4.38963 7.53601 4.19999 7.07817 4.19999 6.60078ZM18.9262 18.7695C19.1625 19.0358 19.5337 19.1408 19.8637 19.002C20.0625 18.9158 20.2575 18.822 20.445 18.717L20.6475 18.6008C20.835 18.4883 21.0187 18.3645 21.195 18.2333C21.48 18.0195 21.5737 17.6445 21.4612 17.307L21.1125 16.2495C21.4425 15.8483 21.7125 15.387 21.8962 14.892L22.9875 14.6633C23.3362 14.592 23.6137 14.322 23.655 13.9695C23.685 13.7183 23.7 13.4633 23.7 13.2045C23.7 12.8164 23.685 12.6908 23.655 12.4395C23.6137 12.087 23.3325 11.817 22.9875 11.7458L21.8962 11.5133C21.7087 11.0145 21.4425 10.557 21.1125 10.1558L21.4612 9.09828C21.5737 8.76078 21.48 8.38578 21.195 8.17203C21.0187 8.04078 20.835 7.91703 20.6475 7.80078L20.4487 7.68828C20.2612 7.58328 20.0662 7.48953 19.8637 7.40328C19.5375 7.26453 19.1662 7.36953 18.9262 7.63578L18.1837 8.46828C17.9287 8.42703 17.6662 8.40453 17.4 8.40453C17.1337 8.40453 16.8712 8.42703 16.6162 8.46828L15.8737 7.63578C15.6375 7.36953 15.2662 7.26453 14.9362 7.40328C14.7375 7.48953 14.5425 7.58328 14.3512 7.68828L14.1562 7.80078C13.965 7.91328 13.785 8.03703 13.6087 8.17203C13.3237 8.38578 13.23 8.76078 13.3425 9.09828L13.6912 10.1558C13.3612 10.557 13.0912 11.0183 12.9075 11.5133L11.8162 11.7383C11.4675 11.8095 11.19 12.0795 11.1487 12.432C11.1187 12.6833 11.1037 12.9383 11.1037 13.197C11.1037 13.5852 11.1187 13.7108 11.1487 13.962C11.19 14.3145 11.4712 14.5845 11.8162 14.6558L12.9075 14.8845C13.095 15.3833 13.3612 15.8408 13.6912 16.242L13.3425 17.2995C13.23 17.637 13.3237 18.012 13.6087 18.2258C13.785 18.357 13.965 18.4808 14.1562 18.5933L14.3587 18.7095C14.5462 18.8145 14.7412 18.9083 14.94 18.9945C15.2662 19.1333 15.6375 19.0283 15.8775 18.762L16.62 17.9295C16.875 17.9708 17.1375 17.9933 17.4037 17.9933C17.67 17.9933 17.9325 17.9708 18.1875 17.9295L18.93 18.762L18.9262 18.7695ZM17.4 11.4008C17.6364 11.4008 17.8704 11.4473 18.0888 11.5378C18.3072 11.6283 18.5056 11.7608 18.6728 11.928C18.8399 12.0951 18.9725 12.2936 19.063 12.512C19.1534 12.7303 19.2 12.9644 19.2 13.2008C19.2 13.4372 19.1534 13.6712 19.063 13.8896C18.9725 14.108 18.8399 14.3064 18.6728 14.4736C18.5056 14.6407 18.3072 14.7733 18.0888 14.8638C17.8704 14.9542 17.6364 15.0008 17.4 15.0008C17.1636 15.0008 16.9295 14.9542 16.7112 14.8638C16.4928 14.7733 16.2943 14.6407 16.1272 14.4736C15.9601 14.3064 15.8275 14.108 15.737 13.8896C15.6465 13.6712 15.6 13.4372 15.6 13.2008C15.6 12.9644 15.6465 12.7303 15.737 12.512C15.8275 12.2936 15.9601 12.0951 16.1272 11.928C16.2943 11.7608 16.4928 11.6283 16.7112 11.5378C16.9295 11.4473 17.1636 11.4008 17.4 11.4008Z" fill="black"/>
</g>
<defs>
<linearGradient id="paint0_linear_760_173" x1="0.827086" y1="0.300783" x2="15.8658" y2="6.65948" gradientUnits="userSpaceOnUse">
<stop stop-color="#33FF00"/>
<stop offset="1" stop-color="#16D5E1"/>
</linearGradient>
<linearGradient id="paint1_linear_760_173" x1="0.827086" y1="0.300783" x2="15.8658" y2="6.65948" gradientUnits="userSpaceOnUse">
<stop stop-color="#33FF00"/>
<stop offset="1" stop-color="#16D5E1"/>
</linearGradient>
<linearGradient id="paint2_linear_760_173" x1="0.827086" y1="0.300783" x2="15.8658" y2="6.65948" gradientUnits="userSpaceOnUse">
<stop stop-color="#33FF00"/>
<stop offset="1" stop-color="#16D5E1"/>
</linearGradient>
<clipPath id="clip0_760_173">
<rect width="24" height="19.2" fill="white"/>
</clipPath>
</defs>
</svg>
