<svg width="552" height="294" viewBox="0 0 552 294" fill="none" xmlns="http://www.w3.org/2000/svg">
<path d="M325.839 32.7932C333.395 13.0453 352.377 0 373.555 0H500.876C536.632 0 561.323 35.7276 548.623 69.0909L466.345 285.233C464.336 290.511 459.269 294 453.613 294H300.079C264.286 294 239.593 258.204 252.364 224.828L325.839 32.7932Z" fill="url(#paint0_linear_689_8)"/>
<path d="M325.839 32.7932C333.395 13.0453 352.377 0 373.555 0H500.876C536.632 0 561.323 35.7276 548.623 69.0909L466.345 285.233C464.336 290.511 459.269 294 453.613 294H300.079C264.286 294 239.593 258.204 252.364 224.828L325.839 32.7932Z" fill="url(#paint1_linear_689_8)" fill-opacity="0.5"/>
<path d="M325.839 32.7932C333.395 13.0453 352.377 0 373.555 0H500.876C536.632 0 561.323 35.7276 548.623 69.0909L466.345 285.233C464.336 290.511 459.269 294 453.613 294H300.079C264.286 294 239.593 258.204 252.364 224.828L325.839 32.7932Z" fill="url(#paint2_linear_689_8)" fill-opacity="0.2"/>
<path d="M455.743 294H340.82H324.646L346.779 275.306L340.82 294L390.498 139.731C393.959 128.983 409.294 129.275 412.343 140.146L452.391 282.954L452.443 283.125C452.896 284.562 456.351 294.425 464.256 288.902C462.554 292.301 455.743 294 455.743 294Z" fill="url(#paint3_linear_689_8)"/>
<path d="M455.743 294H340.82H324.646L346.779 275.306L340.82 294L390.498 139.731C393.959 128.983 409.294 129.275 412.343 140.146L452.391 282.954L452.443 283.125C452.896 284.562 456.351 294.425 464.256 288.902C462.554 292.301 455.743 294 455.743 294Z" fill="url(#paint4_linear_689_8)" fill-opacity="0.5"/>
<path d="M261.945 131.705H402.113L400.866 132.452C398.939 133.606 397.55 135.477 397.005 137.653L343.818 285.198C339.612 296.865 323.107 296.935 318.801 285.304L261.945 131.705Z" fill="url(#paint5_linear_689_8)"/>
<path d="M261.945 131.705H402.113L400.866 132.452C398.939 133.606 397.55 135.477 397.005 137.653L343.818 285.198C339.612 296.865 323.107 296.935 318.801 285.304L261.945 131.705Z" fill="url(#paint6_linear_689_8)" fill-opacity="0.5"/>
<path d="M261.945 131.705H402.113L400.866 132.452C398.939 133.606 397.55 135.477 397.005 137.653L343.818 285.198C339.612 296.865 323.107 296.935 318.801 285.304L261.945 131.705Z" fill="url(#paint7_linear_689_8)" fill-opacity="0.2"/>
<path d="M3.71889 69.955C-9.73466 36.4608 14.9749 0 51.1275 0H178.815C199.686 0 218.457 12.6738 226.223 32.0092L328.051 285.503L330.432 291.451L331.456 294H128.262C107.391 294 88.6199 281.326 80.8532 261.99L3.71889 69.955Z" fill="url(#paint8_linear_689_8)"/>
<path d="M3.71889 69.955C-9.73466 36.4608 14.9749 0 51.1275 0H178.815C199.686 0 218.457 12.6738 226.223 32.0092L328.051 285.503L330.432 291.451L331.456 294H128.262C107.391 294 88.6199 281.326 80.8532 261.99L3.71889 69.955Z" fill="url(#paint9_linear_689_8)" fill-opacity="0.2"/>
<path d="M330.432 291.451L331.456 294C331.456 294 336.564 294 339.118 291.451C332.307 295.699 328.307 285.681 328.051 285.503L330.432 291.451Z" fill="url(#paint10_linear_689_8)"/>
<defs>
<linearGradient id="paint0_linear_689_8" x1="16.1561" y1="2.46692e-05" x2="312.88" y2="187.573" gradientUnits="userSpaceOnUse">
<stop stop-color="#33FF00"/>
<stop offset="1" stop-color="#16D5E1"/>
</linearGradient>
<linearGradient id="paint1_linear_689_8" x1="493.701" y1="184.767" x2="451.287" y2="294.001" gradientUnits="userSpaceOnUse">
<stop stop-color="#15C2CD"/>
<stop offset="1" stop-color="#8F1AFF"/>
</linearGradient>
<linearGradient id="paint2_linear_689_8" x1="451.284" y1="4.14793e-06" x2="372.267" y2="287.417" gradientUnits="userSpaceOnUse">
<stop offset="0.273514" stop-opacity="0"/>
<stop offset="1"/>
</linearGradient>
<linearGradient id="paint3_linear_689_8" x1="241.316" y1="2.02988e-05" x2="568.466" y2="330.991" gradientUnits="userSpaceOnUse">
<stop offset="0.165233" stop-color="#2400FF"/>
<stop offset="1" stop-color="#B923FF"/>
</linearGradient>
<linearGradient id="paint4_linear_689_8" x1="380.202" y1="193.676" x2="447.988" y2="294.003" gradientUnits="userSpaceOnUse">
<stop/>
<stop offset="1" stop-opacity="0"/>
</linearGradient>
<linearGradient id="paint5_linear_689_8" x1="-967.418" y1="-77.6904" x2="-419.946" y2="689.921" gradientUnits="userSpaceOnUse">
<stop stop-color="#FFBEDD"/>
<stop offset="1" stop-color="#FF23DC"/>
</linearGradient>
<linearGradient id="paint6_linear_689_8" x1="359.865" y1="217.885" x2="331.589" y2="291.096" gradientUnits="userSpaceOnUse">
<stop stop-color="#D31FB7"/>
<stop offset="1" stop-color="#FFD24D"/>
</linearGradient>
<linearGradient id="paint7_linear_689_8" x1="380.977" y1="132.668" x2="326.168" y2="290.903" gradientUnits="userSpaceOnUse">
<stop stop-opacity="0"/>
<stop offset="1"/>
</linearGradient>
<linearGradient id="paint8_linear_689_8" x1="27.7576" y1="-67.977" x2="388.25" y2="-36.8987" gradientUnits="userSpaceOnUse">
<stop stop-color="#FF7A00"/>
<stop offset="1" stop-color="#FFD954"/>
</linearGradient>
<linearGradient id="paint9_linear_689_8" x1="106.914" y1="5.82687e-06" x2="205.491" y2="289.742" gradientUnits="userSpaceOnUse">
<stop stop-color="white" stop-opacity="0.5"/>
<stop offset="1" stop-color="white" stop-opacity="0"/>
</linearGradient>
<linearGradient id="paint10_linear_689_8" x1="27.7576" y1="-67.977" x2="388.25" y2="-36.8987" gradientUnits="userSpaceOnUse">
<stop stop-color="#FF7A00"/>
<stop offset="1" stop-color="#FFD954"/>
</linearGradient>
</defs>
</svg>
